<svg width="80" height="80" viewBox="0 0 80 80" fill="none" xmlns="http://www.w3.org/2000/svg">
<path fill-rule="evenodd" clip-rule="evenodd" d="M37.5 39C36.9477 39 36.5 38.5523 36.5 38C36.5 37.4477 36.9477 37 37.5 37C38.0523 37 38.5 37.4477 38.5 38C38.5 38.5523 38.0523 39 37.5 39ZM39.5 45.21V47.99C37.23 47.86 35.21 46.78 33.84 45.13C34.52 44.59 36.12 44.02 37.5 44.02C37.58 44.02 37.65 44.03 37.73 44.03C37.97 43.39 38.4 42.74 39.03 42.17C38.47 42.06 37.94 42.01 37.5 42.01C36.2 42.01 34.11 42.46 32.77 43.44C32.28 42.4 31.99 41.24 31.99 40.01C31.99 35.6 35.58 32.01 39.99 32.01C44.4 32.01 47.99 35.6 47.99 40.01C47.99 41.22 47.72 42.36 47.24 43.38C46.24 42.78 44.88 42.51 44 42.51C42.48 42.51 39.5 43.33 39.5 45.21ZM44 37C42.89 37 41.99 37.89 42 39C42 40.11 42.89 41 44 41C45.11 41 46 40.11 46 39C46 37.89 45.11 37 44 37ZM37.5 41C39.15 41 40.5 39.65 40.5 38C40.5 36.35 39.15 35 37.5 35C35.85 35 34.5 36.35 34.5 38C34.5 39.65 35.85 41 37.5 41Z" fill="white"/>
<path fill-rule="evenodd" clip-rule="evenodd" d="M40.5 38C40.5 36.35 39.15 35 37.5 35C35.85 35 34.5 36.35 34.5 38C34.5 39.65 35.85 41 37.5 41C39.15 41 40.5 39.65 40.5 38ZM37.5 39C36.95 39 36.5 38.55 36.5 38C36.5 37.45 36.95 37 37.5 37C38.05 37 38.5 37.45 38.5 38C38.5 38.55 38.05 39 37.5 39ZM44 41C45.11 41 46 40.11 46 39C46 37.89 45.11 37 44 37C42.89 37 41.99 37.89 42 39C42 40.11 42.89 41 44 41ZM39.99 30.01C34.47 30.01 29.99 34.49 29.99 40.01C29.99 45.53 34.47 50.01 39.99 50.01C45.51 50.01 49.99 45.53 49.99 40.01C49.99 34.49 45.51 30.01 39.99 30.01ZM33.84 45.12C34.52 44.58 36.11 44.01 37.5 44.01C37.57 44.01 37.65 44.02 37.73 44.02C37.97 43.38 38.4 42.73 39.03 42.16C38.47 42.06 37.94 42 37.5 42C36.2 42 34.11 42.45 32.77 43.43C32.27 42.39 31.99 41.23 31.99 40C31.99 35.59 35.58 32 39.99 32C44.4 32 47.99 35.59 47.99 40C47.99 41.2 47.72 42.34 47.24 43.37C46.24 42.78 44.88 42.5 44 42.5C42.48 42.5 39.5 43.31 39.5 45.2V47.98C37.23 47.85 35.21 46.77 33.84 45.12Z" fill="#9A9AB0"/>
</svg>
